Coordinates
version=1
nRows=17
nColumns=40
inDegrees=yes

Units are S.I. units (second, meters, Newtons, ...)
Angles are in degrees.

endheader
time	pelvis_tilt	pelvis_list	pelvis_rotation	pelvis_tx	pelvis_ty	pelvis_tz	hip_flexion_r	hip_adduction_r	hip_rotation_r	knee_angle_r	knee_angle_r_beta	ankle_angle_r	subtalar_angle_r	mtp_angle_r	hip_flexion_l	hip_adduction_l	hip_rotation_l	knee_angle_l	knee_angle_l_beta	ankle_angle_l	subtalar_angle_l	mtp_angle_l	lumbar_extension	lumbar_bending	lumbar_rotation	arm_flex_r	arm_add_r	arm_rot_r	elbow_flex_r	pro_sup_r	wrist_flex_r	wrist_dev_r	arm_flex_l	arm_add_l	arm_rot_l	elbow_flex_l	pro_sup_l	wrist_flex_l	wrist_dev_l
      0.00000000	     -5.09247433	     -0.55739211	     -8.64594636	     -1.17661174	      0.92999076	      1.05214332	    -13.04245902	     -3.56813722	    -26.40295912	     -7.58061093	     -0.13230662	      8.32809880	     10.30474434	    -16.11394908	     36.37994155	      1.36300534	     21.05285377	    -22.39938725	     -0.39094306	      2.14447198	      9.96703307	      2.64543070	     -2.54956736	     -2.71457498	      6.50849201	     13.31575167	    -22.12962865	    -11.15428864	     37.60230121	     89.95437384	      0.00000000	      0.00000000	     -6.79894064	     18.36912172	     12.70532740	     10.31500728	     89.95437384	      0.00000000	      0.00000000
      0.01000000	     -4.91656782	     -0.57419039	     -8.58569723	     -1.16258278	      0.92836013	      1.05447039	    -14.07255206	     -3.69585561	    -26.60573680	     -7.84095821	     -0.13685054	      7.95219701	     10.77450185	    -16.09422817	     36.27892835	      1.41651949	     21.60153599	    -21.57041885	     -0.37647483	      1.90696465	      8.76424888	      2.64869710	     -2.72797146	     -2.76814257	      6.49704631	     13.42073357	    -22.18552144	    -11.68960323	     38.95751446	     89.95437384	      0.00000000	      0.00000000	     -7.31783766	     18.90731104	     12.12412100	      8.99044361	     89.95437384	      0.00000000	      0.00000000
      0.02000000	     -4.92366658	     -0.60724289	     -8.66076142	     -1.14845105	      0.92675371	      1.05678737	    -14.73029240	     -3.89686450	    -26.47997364	     -8.43514380	     -0.14722103	      7.27681174	     10.98576430	    -15.91542605	     36.22686958	      1.52356340	     21.94028157	    -20.97594834	     -0.36609936	      1.78786564	      8.21622665	      2.64592640	     -2.68015612	     -2.76307095	      6.55648590	     13.33755194	    -22.27330819	    -11.98677254	     40.46640278	     89.95437384	      0.00000000	      0.00000000	     -7.85037630	     19.34708208	     11.59625751	      7.63498582	     89.95437384	      0.00000000	      0.00000000
      0.03000000	     -4.87430648	     -0.63712060	     -8.62420428	     -1.13361676	      0.92547951	      1.05879777	    -15.46187672	     -4.11479420	    -26.27505732	     -9.08801117	     -0.15861572	      6.72472953	     11.03477686	    -15.72608270	     36.02552515	      1.56142952	     22.26361087	    -20.82594617	     -0.36348133	      1.87981435	      8.21151524	      2.63009736	     -2.61228003	     -2.76327735	      6.33060721	     13.36386452	    -22.14936462	    -12.41325469	     41.67682070	     89.95437384	      0.00000000	      0.00000000	     -8.66435493	     19.69781156	     11.12620610	      6.58287849	     89.95437384	      0.00000000	      0.00000000
      0.04000000	     -4.26169193	     -0.01592981	     -8.90698290	     -1.11765816	      0.92530529	      1.06090515	    -16.58978531	     -5.46041284	    -26.98135914	    -10.05963381	     -0.17557373	      5.72822633	     12.62177400	    -15.75663551	     34.78616536	      0.85071305	     22.51094007	    -20.32124750	     -0.35467268	      1.95081520	      8.92570623	      2.89875446	     -2.88035583	     -3.56427546	      6.95688004	     12.55513740	    -21.92460667	    -13.85068492	     43.41987489	     89.95437384	      0.00000000	      0.00000000	     -9.21292149	     20.36482145	      6.51700782	      5.58880035	     89.95437384	      0.00000000	      0.00000000
      0.05000000	     -4.09278336	      0.19889587	     -9.08297521	     -1.10126344	      0.92462675	      1.06270405	    -17.28964820	     -6.20998577	    -26.99890250	    -10.97326271	     -0.19151956	      4.55171539	     13.14705019	    -15.50422001	     34.08525130	      0.52112713	     22.16675515	    -20.51578458	     -0.35806799	      2.32803157	     10.17308483	      3.20128488	     -2.64061848	     -3.81984088	      7.21775409	     11.81655363	    -21.73853915	    -14.70746510	     44.85098743	     89.95437384	      0.00000000	      0.00000000	    -10.00213619	     20.70372643	      4.04260790	      4.68263361	     89.95437384	      0.00000000	      0.00000000
      0.06000000	     -4.02509154	      0.25463929	     -9.24465376	     -1.08461590	      0.92397217	      1.06460712	    -17.81273251	     -6.71608771	    -26.47799510	    -12.00413492	     -0.20951168	      3.13375578	     12.88574430	    -15.00129218	     33.47476914	      0.49459938	     21.89620975	    -21.17537275	     -0.36957997	      2.61804719	     10.50733775	      3.14517781	     -2.30067545	     -3.91824168	      7.09728217	     11.34180736	    -21.44207020	    -15.03947594	     45.97972827	     89.95437384	      0.00000000	      0.00000000	    -10.97416071	     20.82478323	      3.67654522	      3.81132099	     89.95437384	      0.00000000	      0.00000000
      0.07000000	     -3.67429027	      0.77358725	     -9.47854644	     -1.06708922	      0.92397689	      1.06605499	    -18.55338232	     -7.97205861	    -26.94533821	    -13.09840082	     -0.22861022	      1.28187053	     13.43808586	    -14.28815986	     32.24893680	     -0.33496468	     21.32078402	    -21.18630871	     -0.36977084	      2.06444625	     12.63066863	      3.77513515	     -2.05224070	     -4.52800222	      7.47514120	     10.28104667	    -21.05992386	    -16.13144730	     47.30452395	     89.95437384	      0.00000000	      0.00000000	    -11.79653821	     21.12191903	      0.14440383	      3.14617632	     89.95437384	      0.00000000	      0.00000000
      0.08000000	     -3.64040476	      0.82933708	     -9.56562846	     -1.04961666	      0.92363848	      1.06766259	    -18.89059329	     -8.53482420	    -26.64186951	    -14.33169225	     -0.25013522	     -0.59097822	     12.98403003	    -13.64991765	     31.84476839	     -0.19801114	     22.16916391	    -22.35424651	     -0.39015520	      0.42635933	     13.69721579	      4.18620456	     -1.56840205	     -4.61628632	      7.27758100	      9.57093478	    -20.67305838	    -16.36919832	     48.21941774	     89.95437384	      0.00000000	      0.00000000	    -12.88497354	     21.14693973	     -0.02243175	      2.71058246	     89.95437384	      0.00000000	      0.00000000
      0.09000000	     -3.78032153	      1.31563431	     -9.62335900	     -1.03248825	      0.92357194	      1.06844761	    -18.71500033	     -9.64606751	    -26.41183359	    -15.89411532	     -0.27740464	     -3.00454072	     12.41749672	    -12.78295856	     31.73317511	     -0.70309021	     21.71777688	    -23.32978623	     -0.40718158	      0.59806948	     13.99777665	      4.02308419	     -0.83144986	     -5.11648737	      7.15466109	      8.80000333	    -20.19982081	    -16.86391046	     48.89785787	     89.95437384	      0.00000000	      0.00000000	    -13.77335317	     21.12696991	     -0.17805812	      2.36632969	     89.95437384	      0.00000000	      0.00000000
      0.10000000	     -4.31746201	      1.94789984	     -9.24826236	     -1.01611305	      0.92309794	      1.06778943	    -17.68510418	    -11.00570492	    -26.77405618	    -18.37005248	     -0.32061790	     -5.25664732	     12.57031464	    -11.59986686	     32.50420540	     -1.39678051	     20.75180176	    -24.97577593	     -0.43590952	      0.12067092	     13.77847699	      3.62446677	      0.26306424	     -5.66259722	      6.55882009	      8.08851174	    -19.64429589	    -17.46048881	     49.40182903	     89.95437384	      0.00000000	      0.00000000	    -14.66973014	     21.01436647	     -0.42576315	      2.25178700	     89.95437384	      0.00000000	      0.00000000
      0.11000000	     -4.67777744	      2.21570028	     -9.00087053	     -0.99973212	      0.92314647	      1.06759834	    -16.62618993	    -11.93331018	    -26.58458410	    -20.87337749	     -0.36430916	     -8.43115545	     11.35276441	    -10.49011844	     33.06634331	     -1.55873603	     20.24215162	    -27.07898307	     -0.47261741	      0.08550683	     13.50250438	      3.41228775	      1.08230159	     -5.84820129	      6.07345260	      7.31980636	    -19.20782871	    -17.74400662	     49.86999499	     89.95437384	      0.00000000	      0.00000000	    -15.40022865	     20.78438086	     -0.18314848	      2.16062238	     89.95437384	      0.00000000	      0.00000000
      0.12000000	     -5.20462700	      2.43241751	     -8.75092649	     -0.98368122	      0.92320406	      1.06741050	    -15.01404545	    -12.79783450	    -26.17785986	    -23.71895063	     -0.41397378	    -12.16743702	      9.78070979	     -9.28673684	     33.59992248	     -1.82002698	     19.61396642	    -28.87236043	     -0.50391775	      0.96259544	     14.10276713	      3.13730794	      2.03326794	     -5.95428632	      5.59138836	      6.49069034	    -18.77547272	    -17.99351905	     50.21181228	     89.95437384	      0.00000000	      0.00000000	    -16.08621424	     20.54596950	      0.48378772	      2.32474068	     89.95437384	      0.00000000	      0.00000000
      0.13000000	     -6.19427372	      3.06811265	     -8.28076547	     -0.96842849	      0.92286497	      1.06642139	    -12.47447173	    -13.88126615	    -25.22311631	    -26.92192607	     -0.46987625	    -15.84357791	      6.38460354	     -7.61820285	     34.12312100	     -3.10957781	     18.09278814	    -29.20308468	     -0.50968998	      1.29359762	     15.78239856	      3.39966805	      3.43144933	     -6.48226136	      4.82952461	      5.67885328	    -18.21815415	    -18.14085871	     50.40376590	     89.95437384	      0.00000000	      0.00000000	    -16.61248574	     20.21422248	      3.02013794	      2.45225704	     89.95437384	      0.00000000	      0.00000000
      0.14000000	     -6.38418407	      3.38974299	     -8.03657396	     -0.95277039	      0.92386835	      1.06597871	    -10.82629712	    -14.75479487	    -24.09078220	    -29.81022847	     -0.52028664	    -19.24685135	      4.75859904	     -6.60972135	     33.46762365	     -3.91819155	     17.40141500	    -29.48641064	     -0.51463495	      2.70402981	     15.70154680	      3.12424923	      3.90381451	     -6.75063787	      4.44975524	      4.72298292	    -17.84895860	    -18.25341356	     50.63882455	     89.95437384	      0.00000000	      0.00000000	    -16.83668221	     19.93696963	      3.87270360	      2.65975334	     89.95437384	      0.00000000	      0.00000000
      0.15000000	     -7.01479247	      4.21392601	     -7.76792242	     -0.93802217	      0.92441770	      1.06542890	     -8.17244117	    -15.95384925	    -22.42791999	    -33.48454662	     -0.58441559	    -21.06302377	      1.65155044	     -5.63932537	     33.22463128	     -5.31390590	     16.49026539	    -29.24402291	     -0.51040449	      3.13205452	     16.87433392	      3.61945301	      4.84400149	     -7.55634697	      3.91957853	      3.92588107	    -17.25186393	    -18.29480449	     50.61861769	     89.95437384	      0.00000000	      0.00000000	    -17.05484118	     19.63924623	      6.61190117	      3.02145416	     89.95437384	      0.00000000	      0.00000000
      0.16000000	     -7.26564684	      4.86126419	     -7.46023532	     -0.92349103	      0.92565933	      1.06477065	     -5.91424692	    -17.03037476	    -21.09509540	    -37.17136054	     -0.64876263	    -21.66455676	     -0.66606726	     -5.12901406	     32.45486802	     -6.53797833	     15.75060300	    -28.93075226	     -0.50493688	      4.15083121	     17.12704780	      3.89774815	      5.27155943	     -8.20017463	      3.38800643	      3.14775770	    -16.77188319	    -18.17306272	     50.49402901	     89.95437384	      0.00000000	      0.00000000	    -16.99863079	     19.32832906	      8.51109671	      3.33393799	     89.95437384	      0.00000000	      0.00000000
